<svg id="splash_screen" xmlns="http://www.w3.org/2000/svg" width="690" height="1293" viewBox="0 0 690 1293">
  <rect id="Rectangle_3" data-name="Rectangle 3" width="690" height="1293" fill="#1d9bf0"/>
  <path id="icon_white" d="M96.288,25.1c.068.953.068,1.907.068,2.86,0,29.077-22.131,62.581-62.581,62.581A62.156,62.156,0,0,1,0,80.67a45.5,45.5,0,0,0,5.312.272,44.05,44.05,0,0,0,27.307-9.4A22.034,22.034,0,0,1,12.053,56.292a27.738,27.738,0,0,0,4.154.34A23.263,23.263,0,0,0,22,55.883,22,22,0,0,1,4.358,34.3v-.272A22.151,22.151,0,0,0,14.3,36.816,22.028,22.028,0,0,1,7.49,7.4,62.52,62.52,0,0,0,52.843,30.415a24.83,24.83,0,0,1-.545-5.039A22.016,22.016,0,0,1,90.364,10.327a43.3,43.3,0,0,0,13.96-5.312,21.936,21.936,0,0,1-9.67,12.121,44.094,44.094,0,0,0,12.666-3.4A47.281,47.281,0,0,1,96.288,25.1Z" transform="translate(291.34 599.537)" fill="#fff"/>
</svg>
